<?xml version="1.0" encoding="UTF-8"?>
<svg id="Layer_2" data-name="Layer 2" xmlns="http://www.w3.org/2000/svg" viewBox="0 0 395.11 85.86">
  <defs>
    <style>
      .cls-1 {
        fill: #fff;
      }

      .cls-1, .cls-2 {
        fill-rule: evenodd;
      }
    </style>
  </defs>
  <g id="Layer_2-2" data-name="Layer 2">
    <g>
      <g>
        <path class="cls-1" d="M300.59,80.16c-4.1,0-6.26-1.62-6.49-4.86h2.71c.01,1.82,1.26,2.74,3.75,2.74.56,0,1.05-.06,1.47-.18.43-.12.78-.28,1.06-.5.28-.22.5-.47.65-.76.15-.29.23-.61.23-.96s-.06-.65-.17-.87c-.12-.22-.33-.41-.65-.58-.32-.17-.76-.33-1.33-.49-.57-.16-1.31-.36-2.22-.6-.89-.23-1.66-.45-2.31-.66-.65-.21-1.18-.48-1.59-.8-.41-.32-.72-.7-.92-1.17-.2-.46-.3-1.05-.3-1.75,0-.62.13-1.19.39-1.72.26-.53.64-.99,1.12-1.38.49-.39,1.08-.69,1.77-.91.69-.22,1.47-.33,2.33-.33,3.96,0,5.97,1.4,6.03,4.21h-2.65c-.09-1.4-1.16-2.11-3.18-2.11-.45,0-.87.04-1.25.13-.38.08-.72.22-1,.38-.28.17-.5.38-.66.63-.16.25-.24.54-.24.86,0,.29.04.54.12.73.08.19.25.36.53.52.28.16.69.32,1.24.48.55.16,1.3.36,2.24.58.91.21,1.71.44,2.38.68.68.24,1.24.53,1.68.86.44.34.77.75.98,1.24.21.49.33,1.09.33,1.81,0,.68-.14,1.31-.43,1.9-.28.58-.68,1.09-1.21,1.51-.52.42-1.16.76-1.9,1.01-.74.25-1.58.37-2.5.37ZM265.08,70.79c-.12-.72-.29-1.34-.54-1.89-.25-.54-.55-.99-.92-1.34-.37-.36-.79-.63-1.26-.81-.47-.19-.98-.28-1.52-.28s-1.05.08-1.52.26c-.46.17-.88.44-1.25.8-.37.36-.68.81-.94,1.35-.26.54-.44,1.18-.54,1.91h8.5ZM261.11,80.16c-1.1,0-2.1-.17-3-.53-.9-.35-1.68-.87-2.32-1.54-.65-.68-1.14-1.51-1.5-2.48-.35-.98-.53-2.1-.53-3.35s.17-2.33.52-3.3c.34-.98.82-1.8,1.45-2.48.63-.68,1.38-1.2,2.24-1.56.87-.37,1.82-.55,2.87-.55s2.07.18,2.94.54c.87.36,1.61.88,2.23,1.55.62.68,1.09,1.5,1.42,2.48.33.97.49,2.08.49,3.32v.65h-11.35c.06.88.21,1.63.47,2.28.25.65.58,1.18.98,1.6.4.42.87.74,1.39.95.53.21,1.1.32,1.72.32.44,0,.88-.06,1.32-.18.44-.12.83-.29,1.19-.52.35-.23.64-.52.86-.86.22-.35.34-.73.35-1.18h2.81c-.12.78-.36,1.47-.73,2.07-.38.6-.85,1.11-1.42,1.52-.58.41-1.24.72-1.98.94-.75.21-1.55.32-2.4.32ZM226.46,61.88h-2.66v-2.91h2.66v2.91ZM226.46,80.6c0,1.1-.09,1.99-.27,2.67-.18.68-.44,1.21-.77,1.6-.33.39-.73.65-1.21.79-.47.14-1,.2-1.6.2-.73,0-1.34-.05-1.81-.14v-2.28c.25.08.49.14.75.16.25.02.49.03.73.03.3,0,.56-.04.75-.14.2-.09.35-.25.46-.48.12-.23.19-.55.24-.95.05-.4.07-.92.07-1.54v-15.78h2.66v15.87ZM192.86,78.27c-1.4,1.26-3.17,1.89-5.29,1.89-.72,0-1.4-.11-2.02-.32-.62-.21-1.16-.5-1.62-.88-.46-.38-.83-.83-1.08-1.37-.26-.54-.39-1.13-.39-1.78,0-3.53,3.03-5.29,9.09-5.29h1.32c0-.65-.02-1.22-.06-1.72-.04-.5-.18-.92-.4-1.27-.23-.35-.58-.61-1.08-.79-.49-.18-1.18-.27-2.07-.27-2.38,0-3.61.86-3.69,2.57h-2.71c.19-3.12,2.38-4.67,6.55-4.67.94,0,1.8.08,2.55.24.76.17,1.41.46,1.93.89.53.43.93,1.02,1.22,1.75.29.74.43,1.68.43,2.81v9.72h-2.68v-1.52ZM192.86,75.84v-3.36h-1.86c-3.89,0-5.83,1.06-5.83,3.17,0,.77.29,1.36.87,1.77.58.41,1.34.61,2.3.61.44,0,.88-.05,1.31-.15.44-.11.86-.25,1.25-.44.39-.19.76-.42,1.09-.69.33-.27.62-.57.87-.91ZM152.37,78c-1.23,1.44-2.67,2.15-4.31,2.15-1,0-1.9-.18-2.67-.55-.78-.37-1.42-.9-1.95-1.58-.52-.68-.92-1.51-1.19-2.46-.27-.96-.41-2.02-.41-3.19,0-1.24.17-2.36.49-3.35.33-.99.78-1.83,1.34-2.53.57-.69,1.24-1.22,2.02-1.59.78-.37,1.61-.55,2.51-.55,1.61,0,3,.5,4.15,1.52v-6.91h2.68v20.81h-2.68v-1.78ZM152.37,75.44v-7.14c-1.2-1.22-2.53-1.83-3.99-1.83-.57,0-1.09.12-1.55.37-.46.25-.86.61-1.19,1.11-.33.49-.58,1.11-.76,1.85-.18.73-.27,1.6-.27,2.58,0,1.85.32,3.26.97,4.22.65.96,1.54,1.44,2.69,1.44.74,0,1.45-.22,2.14-.64.69-.42,1.34-1.08,1.95-1.96ZM105,66.64c.67-.77,1.38-1.34,2.13-1.72.75-.37,1.54-.56,2.36-.56,3.42,0,5.12,1.85,5.12,5.57v9.86h-2.71v-9.72c0-1.24-.22-2.13-.65-2.67-.44-.54-1.15-.81-2.13-.81-1.37,0-2.74.8-4.12,2.4v10.8h-2.66v-15.06h2.66v1.91ZM74.07,61.88h-2.66v-2.91h2.66v2.91ZM74.07,79.79h-2.66v-15.06h2.66v15.06ZM43.15,79.79h-2.66v-20.81h2.66v20.81ZM2.66,76.2c1.17,1.22,2.49,1.83,3.99,1.83.56,0,1.08-.13,1.54-.38.47-.25.86-.62,1.19-1.11.32-.49.57-1.11.75-1.85.18-.73.27-1.59.27-2.57,0-1.85-.32-3.25-.96-4.22-.64-.96-1.53-1.44-2.68-1.44-1.5,0-2.86.86-4.09,2.58v7.15ZM2.66,66.52c.6-.73,1.26-1.27,1.98-1.62.71-.36,1.49-.53,2.32-.53,1,0,1.88.18,2.65.55.77.37,1.42.89,1.95,1.58.53.68.93,1.5,1.21,2.46.27.95.41,2.01.41,3.18s-.16,2.33-.49,3.31c-.32.99-.77,1.83-1.33,2.53-.57.7-1.24,1.24-2.03,1.62-.78.38-1.62.57-2.54.57-.83,0-1.59-.13-2.27-.37-.68-.25-1.31-.64-1.87-1.17v1.17H0v-20.81h2.66v7.54Z"/>
        <path class="cls-1" d="M306.5,52.61h-29.77V6.8h29.47v6.82h-21.22v12.42h17.05v6.64h-17.05v12.82h21.51v7.11ZM250.44,52.61h-8.5V6.8h28.97v7.08h-20.47v12.52h16.11v6.87h-16.11v19.34ZM221.85,35.1l-6.68-20.44-6.68,20.44h13.36ZM236.55,52.61h-8.82l-3.67-10.91h-17.62l-3.59,10.91h-7.04l15.2-45.81h10.16l15.37,45.81ZM156.91,41.57l8.02-1.71c.96,4.54,4.65,6.8,11.08,6.8,2.92,0,5.18-.57,6.76-1.74,1.58-1.16,2.36-2.6,2.36-4.33,0-1.25-.36-2.41-1.07-3.47-.72-1.07-2.26-1.9-4.61-2.5l-8.75-2.29c-3-.78-5.21-1.67-6.64-2.66-1.43-1-2.59-2.41-3.45-4.22-.86-1.81-1.29-3.75-1.29-5.81,0-4.09,1.52-7.38,4.57-9.85,3.05-2.47,6.93-3.71,11.67-3.71,3.94,0,7.46.87,10.56,2.59,3.09,1.72,5.07,4.16,5.92,7.32l-7.86,1.95c-1.2-3.47-4.02-5.2-8.45-5.2-2.58,0-4.54.53-5.89,1.6-1.35,1.08-2.03,2.44-2.03,4.1,0,2.61,2.12,4.45,6.37,5.5l7.79,1.95c4.72,1.18,7.88,2.93,9.5,5.25,1.62,2.32,2.42,4.88,2.42,7.68,0,4.49-1.7,8.04-5.09,10.62-3.39,2.59-7.78,3.88-13.17,3.88-4.54,0-8.51-.95-11.93-2.86-3.41-1.9-5.68-4.86-6.79-8.89ZM134.54,46.67c2.98,0,5.49-1.23,7.55-3.69,2.06-2.46,3.09-6.92,3.09-13.39,0-5.26-.86-9.38-2.56-12.36-1.69-2.99-4.34-4.48-7.91-4.48-7.08,0-10.61,5.69-10.61,17.08,0,5.52.89,9.71,2.7,12.57,1.8,2.85,4.38,4.27,7.73,4.27ZM134.47,53.32c-6.08,0-10.83-2.29-14.22-6.85-3.39-4.57-5.07-10.21-5.07-16.92s1.8-12.25,5.4-16.72c3.61-4.49,8.36-6.74,14.26-6.74s10.65,2.25,14.11,6.74c3.46,4.48,5.19,10.09,5.19,16.83,0,7.07-1.8,12.78-5.38,17.14-3.6,4.35-8.35,6.53-14.28,6.53ZM101.46,52.61h-8.87V13.88h-12.18v-7.08h33.22v7.08h-12.18v38.73ZM76.14,6.8v29.43c0,3.99-.45,7.06-1.35,9.2-.89,2.15-2.62,4-5.18,5.56-2.57,1.56-5.69,2.34-9.38,2.34s-6.8-.68-9.21-2.02c-2.41-1.34-4.14-3.18-5.19-5.52-1.05-2.34-1.58-5.33-1.58-8.95V6.8h8.43v29.43c0,4.03.84,6.68,2.53,7.94,1.68,1.27,3.65,1.9,5.89,1.9,2.58,0,4.63-.68,6.18-2.04,1.55-1.35,2.31-3.95,2.31-7.8V6.8h6.55ZM26.04,35.1l-6.68-20.44-6.68,20.44h13.36ZM40.74,52.61h-8.82l-3.67-10.91H10.63l-3.58,10.91H0L15.2,6.8h10.16l15.37,45.81Z"/>
        <g>
          <path class="cls-1" d="M384.5,27.42h-61.68c-1.55,7.24-1.33,14.77.66,21.49,1.58,4.75,4.33,9.84,8.05,14.23,2.77,3.26,6.04,6.09,9.68,8.34,3.8,2.35,8.6,4.6,12.45,4.6s7.98-2.18,11.45-4.09c3.44-1.89,6.4-4.44,9.04-7.25,4.45-4.74,7.8-10.38,9.61-15.83,2.12-6.84,2.29-14.35.74-21.49ZM353.66,79.99c4.41,0,8.65-2.24,12.52-4.37,3.48-1.91,7.04-4.66,9.83-7.51,5.46-5.56,9.34-12.44,11.47-18.85,1.43-4.32,2.09-8.61,2.11-13.42.03-6.09-1.27-12.42-3.98-18.58-1.75-3.99-4.93-9.07-8.14-12.17-8.94,6.59-16.66,5.39-23.82.07-3.65,2.83-7.54,4.6-11.73,4.6-3.82,0-7.88-1.48-12.22-4.67-3.46,3.52-6.26,8.18-8.01,12.17-4.83,11.03-5.3,22.21-2.05,32,1.34,4.04,3.35,8.45,6.15,12.51,3.6,5.22,8.47,9.93,13.82,13.24,4.23,2.62,9.76,4.97,14.05,4.97Z"/>
          <path class="cls-1" d="M393.77,7.8c-.89.9-1.97,1.34-3.24,1.34s-2.34-.45-3.23-1.34c-.88-.89-1.33-1.97-1.33-3.24s.45-2.33,1.34-3.22c.89-.89,1.96-1.33,3.22-1.33s2.34.44,3.24,1.33c.89.89,1.34,1.96,1.34,3.22s-.45,2.35-1.34,3.24ZM387.76,1.78c-.76.77-1.14,1.69-1.14,2.78s.38,2.03,1.14,2.8c.76.77,1.69,1.16,2.78,1.16s2.02-.39,2.78-1.16,1.14-1.71,1.14-2.8-.38-2.01-1.14-2.78c-.77-.77-1.69-1.16-2.78-1.16s-2.01.39-2.78,1.16ZM390.45,2.03c.62,0,1.08.06,1.37.18.52.22.78.64.78,1.27,0,.45-.16.78-.49.99-.17.11-.42.19-.72.24.39.06.68.23.86.49s.27.52.27.78v.37c0,.12,0,.24.01.37,0,.13.02.22.04.26l.03.06h-.83s0-.03-.01-.05c0-.02,0-.04-.01-.06l-.02-.16v-.4c0-.58-.16-.96-.47-1.15-.19-.11-.51-.16-.98-.16h-.7v1.97h-.88V2.03h1.75ZM391.4,2.82c-.22-.12-.58-.19-1.07-.19h-.75v1.82h.8c.37,0,.66-.04.84-.11.35-.14.52-.4.52-.78,0-.37-.11-.61-.33-.73Z"/>
        </g>
      </g>
      <g>
        <path class="cls-2" d="M300.59,80.16c-4.1,0-6.26-1.62-6.49-4.86h2.71c.01,1.82,1.26,2.74,3.75,2.74.56,0,1.05-.06,1.47-.18.43-.12.78-.28,1.06-.5.28-.22.5-.47.65-.76.15-.29.23-.61.23-.96s-.06-.65-.17-.87c-.12-.22-.33-.41-.65-.58-.32-.17-.76-.33-1.33-.49-.57-.16-1.31-.36-2.22-.6-.89-.23-1.66-.45-2.31-.66-.65-.21-1.18-.48-1.59-.8-.41-.32-.72-.7-.92-1.17-.2-.46-.3-1.05-.3-1.75,0-.62.13-1.19.39-1.72.26-.53.64-.99,1.12-1.38.49-.39,1.08-.69,1.77-.91.69-.22,1.47-.33,2.33-.33,3.96,0,5.97,1.4,6.03,4.21h-2.65c-.09-1.4-1.16-2.11-3.18-2.11-.45,0-.87.04-1.25.13-.38.08-.72.22-1,.38-.28.17-.5.38-.66.63-.16.25-.24.54-.24.86,0,.29.04.54.12.73.08.19.25.36.53.52.28.16.69.32,1.24.48.55.16,1.3.36,2.24.58.91.21,1.71.44,2.38.68.68.24,1.24.53,1.68.86.44.34.77.75.98,1.24.21.49.33,1.09.33,1.81,0,.68-.14,1.31-.43,1.9-.28.58-.68,1.09-1.21,1.51-.52.42-1.16.76-1.9,1.01-.74.25-1.58.37-2.5.37ZM265.08,70.79c-.12-.72-.29-1.34-.54-1.89-.25-.54-.55-.99-.92-1.34-.37-.36-.79-.63-1.26-.81-.47-.19-.98-.28-1.52-.28s-1.05.08-1.52.26c-.46.17-.88.44-1.25.8-.37.36-.68.81-.94,1.35-.26.54-.44,1.18-.54,1.91h8.5ZM261.11,80.16c-1.1,0-2.1-.17-3-.53-.9-.35-1.68-.87-2.32-1.54-.65-.68-1.14-1.51-1.5-2.48-.35-.98-.53-2.1-.53-3.35s.17-2.33.52-3.3c.34-.98.82-1.8,1.45-2.48.63-.68,1.38-1.2,2.24-1.56.87-.37,1.82-.55,2.87-.55s2.07.18,2.94.54c.87.36,1.61.88,2.23,1.55.62.68,1.09,1.5,1.42,2.48.33.97.49,2.08.49,3.32v.65h-11.35c.06.88.21,1.63.47,2.28.25.65.58,1.18.98,1.6.4.42.87.74,1.39.95.53.21,1.1.32,1.72.32.44,0,.88-.06,1.32-.18.44-.12.83-.29,1.19-.52.35-.23.64-.52.86-.86.22-.35.34-.73.35-1.18h2.81c-.12.78-.36,1.47-.73,2.07-.38.6-.85,1.11-1.42,1.52-.58.41-1.24.72-1.98.94-.75.21-1.55.32-2.4.32ZM226.46,61.88h-2.66v-2.91h2.66v2.91ZM226.46,80.6c0,1.1-.09,1.99-.27,2.67-.18.68-.44,1.21-.77,1.6-.33.39-.73.65-1.21.79-.47.14-1,.2-1.6.2-.73,0-1.34-.05-1.81-.14v-2.28c.25.08.49.14.75.16.25.02.49.03.73.03.3,0,.56-.04.75-.14.2-.09.35-.25.46-.48.12-.23.19-.55.24-.95.05-.4.07-.92.07-1.54v-15.78h2.66v15.87ZM192.86,78.27c-1.4,1.26-3.17,1.89-5.29,1.89-.72,0-1.4-.11-2.02-.32-.62-.21-1.16-.5-1.62-.88-.46-.38-.83-.83-1.08-1.37-.26-.54-.39-1.13-.39-1.78,0-3.53,3.03-5.29,9.09-5.29h1.32c0-.65-.02-1.22-.06-1.72-.04-.5-.18-.92-.4-1.27-.23-.35-.58-.61-1.08-.79-.49-.18-1.18-.27-2.07-.27-2.38,0-3.61.86-3.69,2.57h-2.71c.19-3.12,2.38-4.67,6.55-4.67.94,0,1.8.08,2.55.24.76.17,1.41.46,1.93.89.53.43.93,1.02,1.22,1.75.29.74.43,1.68.43,2.81v9.72h-2.68v-1.52ZM192.86,75.84v-3.36h-1.86c-3.89,0-5.83,1.06-5.83,3.17,0,.77.29,1.36.87,1.77.58.41,1.34.61,2.3.61.44,0,.88-.05,1.31-.15.44-.11.86-.25,1.25-.44.39-.19.76-.42,1.09-.69.33-.27.62-.57.87-.91ZM152.37,78c-1.23,1.44-2.67,2.15-4.31,2.15-1,0-1.9-.18-2.67-.55-.78-.37-1.42-.9-1.95-1.58-.52-.68-.92-1.51-1.19-2.46-.27-.96-.41-2.02-.41-3.19,0-1.24.17-2.36.49-3.35.33-.99.78-1.83,1.34-2.53.57-.69,1.24-1.22,2.02-1.59.78-.37,1.61-.55,2.51-.55,1.61,0,3,.5,4.15,1.52v-6.91h2.68v20.81h-2.68v-1.78ZM152.37,75.44v-7.14c-1.2-1.22-2.53-1.83-3.99-1.83-.57,0-1.09.12-1.55.37-.46.25-.86.61-1.19,1.11-.33.49-.58,1.11-.76,1.85-.18.73-.27,1.6-.27,2.58,0,1.85.32,3.26.97,4.22.65.96,1.54,1.44,2.69,1.44.74,0,1.45-.22,2.14-.64.69-.42,1.34-1.08,1.95-1.96ZM105,66.64c.67-.77,1.38-1.34,2.13-1.72.75-.37,1.54-.56,2.36-.56,3.42,0,5.12,1.85,5.12,5.57v9.86h-2.71v-9.72c0-1.24-.22-2.13-.65-2.67-.44-.54-1.15-.81-2.13-.81-1.37,0-2.74.8-4.12,2.4v10.8h-2.66v-15.06h2.66v1.91ZM74.07,61.88h-2.66v-2.91h2.66v2.91ZM74.07,79.79h-2.66v-15.06h2.66v15.06ZM43.15,79.79h-2.66v-20.81h2.66v20.81ZM2.66,76.2c1.17,1.22,2.49,1.83,3.99,1.83.56,0,1.08-.13,1.54-.38.47-.25.86-.62,1.19-1.11.32-.49.57-1.11.75-1.85.18-.73.27-1.59.27-2.57,0-1.85-.32-3.25-.96-4.22-.64-.96-1.53-1.44-2.68-1.44-1.5,0-2.86.86-4.09,2.58v7.15ZM2.66,66.52c.6-.73,1.26-1.27,1.98-1.62.71-.36,1.49-.53,2.32-.53,1,0,1.88.18,2.65.55.77.37,1.42.89,1.95,1.58.53.68.93,1.5,1.21,2.46.27.95.41,2.01.41,3.18s-.16,2.33-.49,3.31c-.32.99-.77,1.83-1.33,2.53-.57.7-1.24,1.24-2.03,1.62-.78.38-1.62.57-2.54.57-.83,0-1.59-.13-2.27-.37-.68-.25-1.31-.64-1.87-1.17v1.17H0v-20.81h2.66v7.54Z"/>
        <path class="cls-2" d="M306.5,52.61h-29.77V6.8h29.47v6.82h-21.22v12.42h17.05v6.64h-17.05v12.82h21.51v7.11ZM250.44,52.61h-8.5V6.8h28.97v7.08h-20.47v12.52h16.11v6.87h-16.11v19.34ZM221.85,35.1l-6.68-20.44-6.68,20.44h13.36ZM236.55,52.61h-8.82l-3.67-10.91h-17.62l-3.59,10.91h-7.04l15.2-45.81h10.16l15.37,45.81ZM156.91,41.57l8.02-1.71c.96,4.54,4.65,6.8,11.08,6.8,2.92,0,5.18-.57,6.76-1.74,1.58-1.16,2.36-2.6,2.36-4.33,0-1.25-.36-2.41-1.07-3.47-.72-1.07-2.26-1.9-4.61-2.5l-8.75-2.29c-3-.78-5.21-1.67-6.64-2.66-1.43-1-2.59-2.41-3.45-4.22-.86-1.81-1.29-3.75-1.29-5.81,0-4.09,1.52-7.38,4.57-9.85,3.05-2.47,6.93-3.71,11.67-3.71,3.94,0,7.46.87,10.56,2.59,3.09,1.72,5.07,4.16,5.92,7.32l-7.86,1.95c-1.2-3.47-4.02-5.2-8.45-5.2-2.58,0-4.54.53-5.89,1.6-1.35,1.08-2.03,2.44-2.03,4.1,0,2.61,2.12,4.45,6.37,5.5l7.79,1.95c4.72,1.18,7.88,2.93,9.5,5.25,1.62,2.32,2.42,4.88,2.42,7.68,0,4.49-1.7,8.04-5.09,10.62-3.39,2.59-7.78,3.88-13.17,3.88-4.54,0-8.51-.95-11.93-2.86-3.41-1.9-5.68-4.86-6.79-8.89ZM134.54,46.67c2.98,0,5.49-1.23,7.55-3.69,2.06-2.46,3.09-6.92,3.09-13.39,0-5.26-.86-9.38-2.56-12.36-1.69-2.99-4.34-4.48-7.91-4.48-7.08,0-10.61,5.69-10.61,17.08,0,5.52.89,9.71,2.7,12.57,1.8,2.85,4.38,4.27,7.73,4.27ZM134.47,53.32c-6.08,0-10.83-2.29-14.22-6.85-3.39-4.57-5.07-10.21-5.07-16.92s1.8-12.25,5.4-16.72c3.61-4.49,8.36-6.74,14.26-6.74s10.65,2.25,14.11,6.74c3.46,4.48,5.19,10.09,5.19,16.83,0,7.07-1.8,12.78-5.38,17.14-3.6,4.35-8.35,6.53-14.28,6.53ZM101.46,52.61h-8.87V13.88h-12.18v-7.08h33.22v7.08h-12.18v38.73ZM76.14,6.8v29.43c0,3.99-.45,7.06-1.35,9.2-.89,2.15-2.62,4-5.18,5.56-2.57,1.56-5.69,2.34-9.38,2.34s-6.8-.68-9.21-2.02c-2.41-1.34-4.14-3.18-5.19-5.52-1.05-2.34-1.58-5.33-1.58-8.95V6.8h8.43v29.43c0,4.03.84,6.68,2.53,7.94,1.68,1.27,3.65,1.9,5.89,1.9,2.58,0,4.63-.68,6.18-2.04,1.55-1.35,2.31-3.95,2.31-7.8V6.8h6.55ZM26.04,35.1l-6.68-20.44-6.68,20.44h13.36ZM40.74,52.61h-8.82l-3.67-10.91H10.63l-3.58,10.91H0L15.2,6.8h10.16l15.37,45.81Z"/>
        <g>
          <path class="cls-2" d="M384.5,27.42h-61.68c-1.55,7.24-1.33,14.77.66,21.49,1.58,4.75,4.33,9.84,8.05,14.23,2.77,3.26,6.04,6.09,9.68,8.34,3.8,2.35,8.6,4.6,12.45,4.6s7.98-2.18,11.45-4.09c3.44-1.89,6.4-4.44,9.04-7.25,4.45-4.74,7.8-10.38,9.61-15.83,2.12-6.84,2.29-14.35.74-21.49ZM353.66,79.99c4.41,0,8.65-2.24,12.52-4.37,3.48-1.91,7.04-4.66,9.83-7.51,5.46-5.56,9.34-12.44,11.47-18.85,1.43-4.32,2.09-8.61,2.11-13.42.03-6.09-1.27-12.42-3.98-18.58-1.75-3.99-4.93-9.07-8.14-12.17-8.94,6.59-16.66,5.39-23.82.07-3.65,2.83-7.54,4.6-11.73,4.6-3.82,0-7.88-1.48-12.22-4.67-3.46,3.52-6.26,8.18-8.01,12.17-4.83,11.03-5.3,22.21-2.05,32,1.34,4.04,3.35,8.45,6.15,12.51,3.6,5.22,8.47,9.93,13.82,13.24,4.23,2.62,9.76,4.97,14.05,4.97Z"/>
          <g>
            <path class="cls-2" d="M393.77,7.8c-.89.9-1.97,1.34-3.24,1.34s-2.34-.45-3.23-1.34c-.88-.89-1.33-1.97-1.33-3.24s.45-2.33,1.34-3.22c.89-.89,1.96-1.33,3.22-1.33s2.34.44,3.24,1.33c.89.89,1.34,1.96,1.34,3.22s-.45,2.35-1.34,3.24ZM387.76,1.78c-.76.77-1.14,1.69-1.14,2.78s.38,2.03,1.14,2.8c.76.77,1.69,1.16,2.78,1.16s2.02-.39,2.78-1.16,1.14-1.71,1.14-2.8-.38-2.01-1.14-2.78c-.77-.77-1.69-1.16-2.78-1.16s-2.01.39-2.78,1.16ZM390.45,2.03c.62,0,1.08.06,1.37.18.52.22.78.64.78,1.27,0,.45-.16.78-.49.99-.17.11-.42.19-.72.24.39.06.68.23.86.49s.27.52.27.78v.37c0,.12,0,.24.01.37,0,.13.02.22.04.26l.03.06h-.83s0-.03-.01-.05c0-.02,0-.04-.01-.06l-.02-.16v-.4c0-.58-.16-.96-.47-1.15-.19-.11-.51-.16-.98-.16h-.7v1.97h-.88V2.03h1.75ZM391.4,2.82c-.22-.12-.58-.19-1.07-.19h-.75v1.82h.8c.37,0,.66-.04.84-.11.35-.14.52-.4.52-.78,0-.37-.11-.61-.33-.73Z"/>
            <path class="cls-2" d="M393.77,7.8c-.89.9-1.97,1.34-3.24,1.34s-2.34-.45-3.23-1.34c-.88-.89-1.33-1.97-1.33-3.24s.45-2.33,1.34-3.22c.89-.89,1.96-1.33,3.22-1.33s2.34.44,3.24,1.33c.89.89,1.34,1.96,1.34,3.22s-.45,2.35-1.34,3.24ZM387.76,1.78c-.76.77-1.14,1.69-1.14,2.78s.38,2.03,1.14,2.8c.76.77,1.69,1.16,2.78,1.16s2.02-.39,2.78-1.16,1.14-1.71,1.14-2.8-.38-2.01-1.14-2.78c-.77-.77-1.69-1.16-2.78-1.16s-2.01.39-2.78,1.16ZM390.45,2.03c.62,0,1.08.06,1.37.18.52.22.78.64.78,1.27,0,.45-.16.78-.49.99-.17.11-.42.19-.72.24.39.06.68.23.86.49s.27.52.27.78v.37c0,.12,0,.24.01.37,0,.13.02.22.04.26l.03.06h-.83s0-.03-.01-.05c0-.02,0-.04-.01-.06l-.02-.16v-.4c0-.58-.16-.96-.47-1.15-.19-.11-.51-.16-.98-.16h-.7v1.97h-.88V2.03h1.75ZM391.4,2.82c-.22-.12-.58-.19-1.07-.19h-.75v1.82h.8c.37,0,.66-.04.84-.11.35-.14.52-.4.52-.78,0-.37-.11-.61-.33-.73Z"/>
            <path class="cls-2" d="M393.77,7.8c-.89.9-1.97,1.34-3.24,1.34s-2.34-.45-3.23-1.34c-.88-.89-1.33-1.97-1.33-3.24s.45-2.33,1.34-3.22c.89-.89,1.96-1.33,3.22-1.33s2.34.44,3.24,1.33c.89.89,1.34,1.96,1.34,3.22s-.45,2.35-1.34,3.24ZM387.76,1.78c-.76.77-1.14,1.69-1.14,2.78s.38,2.03,1.14,2.8c.76.77,1.69,1.16,2.78,1.16s2.02-.39,2.78-1.16,1.14-1.71,1.14-2.8-.38-2.01-1.14-2.78c-.77-.77-1.69-1.16-2.78-1.16s-2.01.39-2.78,1.16ZM390.45,2.03c.62,0,1.08.06,1.37.18.52.22.78.64.78,1.27,0,.45-.16.78-.49.99-.17.11-.42.19-.72.24.39.06.68.23.86.49s.27.52.27.78v.37c0,.12,0,.24.01.37,0,.13.02.22.04.26l.03.06h-.83s0-.03-.01-.05c0-.02,0-.04-.01-.06l-.02-.16v-.4c0-.58-.16-.96-.47-1.15-.19-.11-.51-.16-.98-.16h-.7v1.97h-.88V2.03h1.75ZM391.4,2.82c-.22-.12-.58-.19-1.07-.19h-.75v1.82h.8c.37,0,.66-.04.84-.11.35-.14.52-.4.52-.78,0-.37-.11-.61-.33-.73Z"/>
          </g>
        </g>
      </g>
    </g>
  </g>
</svg>